<svg width="83" height="84" viewBox="0 0 83 84" fill="none" xmlns="http://www.w3.org/2000/svg">
<path d="M41.5 83.1775C34.2351 83.1775 27.1143 81.2557 20.804 77.6044L4.63513 83.1775L7.96137 66.0498C2.74385 58.9093 0 50.5076 0 41.6676C0 18.7807 18.6186 0.157654 41.5 0.157654C64.3814 0.157654 83 18.7807 83 41.6676C83 64.5545 64.3874 83.1775 41.5 83.1775Z" fill="#23CE6B"/>
<path d="M27.8108 31.248C27.8108 31.248 29.4019 28.4675 30.6988 28.3053C31.9957 28.1432 33.6648 28.1432 34.1151 28.996C34.5654 29.8427 36.5768 34.7732 36.5768 34.7732C36.5768 34.7732 36.925 35.62 36.3906 36.4428C35.8623 37.2655 34.6675 38.4546 34.6675 38.4546C34.6675 38.4546 34.007 39.3014 34.6675 40.2022C35.3279 41.103 36.3546 42.7605 38.48 44.8805C40.5995 47.0064 44.6762 48.5198 44.6762 48.5198C44.6762 48.5198 45.2586 48.5979 45.6309 48.2255C46.0031 47.8532 48.0145 45.3369 48.0145 45.3369C48.0145 45.3369 48.6629 44.5021 49.7376 44.9946C50.8124 45.487 55.4595 47.8051 55.4595 47.8051C55.4595 47.8051 56.0059 48.0033 56.0059 48.8261C56.0059 49.6488 55.6756 51.6546 54.9972 52.3333C54.3187 53.0119 52.3314 55.1078 49.3474 55.1078C46.3634 55.1078 39.2546 52.6816 35.472 48.8921C31.6835 45.1027 28.3212 41.2592 27.5286 37.764C26.7361 34.2688 26.8382 32.6893 27.8168 31.248H27.8108Z" fill="white"/>
<path d="M41.5 68.7823C36.7568 68.7823 32.0977 67.5272 27.9789 65.143L17.4178 68.7823L19.5852 57.5941C16.181 52.9278 14.3857 47.4388 14.3857 41.6615C14.3857 26.7079 26.55 14.5408 41.5 14.5408C56.4501 14.5408 68.6143 26.7079 68.6143 41.6615C68.6143 56.6152 56.4501 68.7823 41.5 68.7823ZM28.4652 60.7049L29.2818 61.2154C32.9623 63.5215 37.1891 64.7466 41.5 64.7466C54.2286 64.7466 64.5796 54.3932 64.5796 41.6615C64.5796 28.9299 54.2286 18.5765 41.5 18.5765C28.7714 18.5765 18.4205 28.9299 18.4205 41.6615C18.4205 46.8383 20.1136 51.7447 23.3198 55.8525L23.8841 56.5792L22.6953 62.6927L28.4532 60.7109L28.4652 60.7049Z" fill="white"/>
</svg>
